<?xml version="1.0" encoding="UTF-8"?><svg id="Layer_2" xmlns="http://www.w3.org/2000/svg" viewBox="0 0 673.42 537.91"><style>path{fill:#362217}@media(prefers-color-scheme:dark){path{fill:#faf9f8}}</style><g id="Layer_1-2"><path d="M437.28,127.04s6.38,7.16,6.38,18.29v124.82c-37.39-44.53-70.78-94.6-108.93-139.14-14.32-17.5-42.14-46.91-52.48-55.65C214.68,9.36,103.37-20.85,0,15.73v3.97c35.78-7.95,81.89-4.77,126.42,13.51,34.19,12.72,82.68,50.09,110.52,84.28,35.78,41.35,112.9,147.09,112.9,147.09,44.54,57.24,83.5,109.71,128.82,163.77V145.32c0-11.13,6.36-18.29,6.36-18.29h-47.73Z" fill-rule="evenodd"/><path d="M236.14,410.88s-6.36-7.16-6.36-17.5v-125.63c37.37,44.53,70.76,94.6,108.93,139.14,14.32,17.5,41.35,46.9,51.67,55.65,68.36,65.99,178.89,96.2,283.03,59.63v-3.98c-35.77,7.95-81.89,4.77-127.22-13.51-33.38-12.72-81.87-50.09-109.71-84.28-36.57-41.35-112.9-147.09-112.9-147.09-44.53-57.25-83.49-109.71-128.8-163.78v283.84c0,10.32-6.36,17.5-6.36,17.5h47.72,0Z" fill-rule="evenodd"/></g></svg>
