<?xml version="1.0" encoding="UTF-8"?><svg id="Layer_2" xmlns="http://www.w3.org/2000/svg" viewBox="0 0 2103.13 382.49"><g id="Layer_1-2"><path d="M924.19,64.39h-127.53v254.42h64.57v-93.31s92.34,5.17,118.33-29.22c19.37-22.12,20.5-57.47,12.59-84.91-10.65-30.99-33.9-46.98-67.8-46.82l-.16-.16ZM931.62,179.01c-15.17,17.76-48.43,17.6-70.71,16.14l.16-102.02s57.47-8.07,72.64,17.92c8.72,15.66,10.82,50.69-2.1,67.8v.16ZM382.11,360.13c-29.19-13.3-55.01-33-75.55-57.63-24.86-28.25-83.94-107.67-83.94-107.67-30.67-39.23-71.35-104.45-111.71-137.22v260.55h36v-131.4c25.34,32.29,54.89,73.45,77.33,99.44,9.69,11.78,35.03,39.07,42.29,45.2,46.33,44.88,131.4,65.22,202.43,40.36v-2.58c-24.21,5.33-55.86,3.23-86.85-9.04ZM162.56,79.73c24.7,28.25,83.94,107.67,83.94,107.67,30.67,39.39,71.35,104.45,111.71,137.22V64.07h-36v131.57c-25.34-32.29-55.05-73.45-77.49-99.44-13.31-15.74-27.37-30.82-42.13-45.2C156.1,5.95,71.03-14.07,0,10.79v2.42c29.2-5.47,59.36-2.39,86.85,8.88,29.22,13.33,55.04,33.08,75.55,57.79l.16-.16ZM569.04,92.8v-28.41h-174.35v254.42h174.67l-.16-28.57c-33.58.97-75.55,6.13-109.93,2.74v-91.21c27.93-1.61,61.67-.97,87.66,1.45v-30.19c-26.31,3.23-59.57,3.07-87.66,1.29v-83.94c34.38-3.71,76.36,1.94,109.77,2.42ZM749.52,195.15c-29.38-25.34-65.38-33.42-90.4-50.69-17.76-13.56-15.17-31.32-6.13-40.84,21.15-23.57,65.54-12.43,75.87-10.01,13.08,3.87,20.02,8.07,32.61,13.56v-31.96c-52.95-15.34-137.7-30.03-171.12,23.08-12.11,21.79-15.34,61.34,20.02,84.43,35.51,28.25,94.11,41.81,101.38,64.57,4.52,12.43-.97,24.21-9.36,32.77-31.64,29.22-82.33,10.98-115.1-3.55v31.48c35.51,15.82,80.23,19.86,120.1,11.3,27.28-5.97,57.79-30.03,62.64-59.57,5-29.06-1.13-48.27-20.5-64.57ZM1231.4,305.41l-7.91-14.85c-16.42-30.04-31.5-60.8-45.2-92.18,1.61-1.13,1.13-.65,5.49-2.74,23.73-11.3,39.23-31.48,38.9-66.67-1.13-43.26-40.68-64.57-75.23-64.57h-129.31v254.42h64.9v-105.09h37.13c15.04,28.72,28.82,58.07,41.33,87.98l7.59,17.11h69.42l-6.3-11.95-.81-1.45ZM1151.17,168.84c-15.17,18.4-46.82,16.95-68.61,16.95v-93.15s55.53-8.39,70.87,18.24c7.91,15.01,8.88,42.94-2.26,58.12v-.16ZM1976.56,60.68c-16.79-.16-126.24,1.61-126.72,129.95,0,127.53,108.16,132.37,126.72,132.37s126.88-4.84,126.56-132.37c-.16-128.34-109.45-130.11-126.56-129.95ZM1977.05,287.49h-.97c-7.1,0-59.25,2.26-58.92-101.7.32-96.54,51.17-93.79,59.57-93.79s59.08-2.74,59.57,93.63c.32,104.12-51.98,101.86-59.25,101.86ZM1615.76,195.15c-29.54-25.34-65.38-33.42-90.56-50.69-17.76-13.56-15.01-31.32-5.97-40.84,21.15-23.57,65.54-12.43,75.87-10.01,12.91,3.87,20.02,8.07,32.45,13.56v-31.96c-52.79-15.34-137.54-30.03-170.96,23.08-12.27,21.79-15.34,61.34,19.86,84.43,35.68,28.25,94.11,41.81,101.38,64.57,4.52,12.43-.97,24.21-9.36,32.77-31.64,29.22-82.33,10.98-115.1-3.55v31.48c35.51,15.82,80.23,19.86,120.1,11.3,27.44-5.97,57.79-30.03,62.8-59.57,4.84-29.06-1.13-48.27-20.5-64.57ZM1813.84,195.15c-29.38-25.34-65.22-33.42-90.4-50.69-17.76-13.56-15.17-31.32-6.13-40.84,20.99-23.57,65.54-12.43,75.87-10.01,13.08,3.87,20.18,8.07,32.61,13.56v-31.96c-52.95-15.34-137.54-30.03-171.12,23.08-12.27,21.79-15.5,61.34,20.02,84.43,35.68,28.25,94.11,41.81,101.22,64.57,4.68,12.43-.65,24.21-9.36,32.77-31.48,29.22-82.33,10.98-114.94-3.55l-.16,31.48c35.51,15.82,80.39,19.86,120.1,11.3,27.44-5.97,57.95-30.03,62.96-59.57,4.84-29.06-1.29-48.27-20.66-64.57ZM1259.97,318.81h174.51v-28.73c-33.58.97-75.55,6.13-109.93,2.74v-91.21c27.93-1.61,61.83-.97,87.82,1.45v-30.19c-26.64,3.23-59.73,3.07-87.98,1.29v-83.94c34.55-3.71,76.52,1.94,110.1,2.42v-28.25h-174.51s0,254.42,0,254.42Z" fill="#faf9f8"/></g></svg>