<?xml version="1.0" encoding="UTF-8"?><svg id="Layer_2" xmlns="http://www.w3.org/2000/svg" viewBox="0 0 350 63.65"><g id="Layer_1-2"><path d="M153.8,10.72h-21.22v42.34h10.75v-15.53s15.37.86,19.69-4.86c3.22-3.68,3.41-9.56,2.1-14.13-1.77-5.16-5.64-7.82-11.28-7.79l-.03-.03ZM155.04,29.79c-2.53,2.96-8.06,2.93-11.77,2.69l.03-16.98s9.56-1.34,12.09,2.98c1.45,2.61,1.8,8.44-.35,11.28v.03ZM63.59,59.93c-4.86-2.21-9.15-5.49-12.57-9.59-4.14-4.7-13.97-17.92-13.97-17.92-5.1-6.53-11.87-17.38-18.59-22.84v43.36h5.99v-21.87c4.22,5.37,9.13,12.22,12.87,16.55,1.61,1.96,5.83,6.5,7.04,7.52,7.71,7.47,21.87,10.85,33.69,6.72v-.43c-4.03.89-9.3.54-14.45-1.5ZM27.05,13.27c4.11,4.7,13.97,17.92,13.97,17.92,5.1,6.56,11.87,17.38,18.59,22.84V10.66h-5.99v21.9c-4.22-5.37-9.16-12.22-12.9-16.55-2.21-2.62-4.55-5.13-7.01-7.52C25.98.99,11.82-2.34,0,1.8v.4c4.86-.91,9.88-.4,14.45,1.48,4.86,2.22,9.16,5.51,12.57,9.62l.03-.03ZM94.7,15.44v-4.73h-29.01v42.34h29.07l-.03-4.76c-5.59.16-12.57,1.02-18.3.46v-15.18c4.65-.27,10.26-.16,14.59.24v-5.02c-4.38.54-9.91.51-14.59.21v-13.97c5.72-.62,12.71.32,18.27.4ZM124.74,32.48c-4.89-4.22-10.88-5.56-15.04-8.44-2.96-2.26-2.53-5.21-1.02-6.8,3.52-3.92,10.91-2.07,12.63-1.67,2.18.64,3.33,1.34,5.43,2.26v-5.32c-8.81-2.55-22.92-5-28.48,3.84-2.01,3.63-2.55,10.21,3.33,14.05,5.91,4.7,15.66,6.96,16.87,10.75.75,2.07-.16,4.03-1.56,5.45-5.27,4.86-13.7,1.83-19.15-.59v5.24c5.91,2.63,13.35,3.3,19.99,1.88,4.54-.99,9.62-5,10.42-9.91.83-4.84-.19-8.03-3.41-10.75ZM204.93,50.83l-1.32-2.47c-2.73-5-5.24-10.12-7.52-15.34.27-.19.19-.11.91-.46,3.95-1.88,6.53-5.24,6.47-11.1-.19-7.2-6.77-10.75-12.52-10.75h-21.52v42.34h10.8v-17.49h6.18c2.5,4.78,4.8,9.66,6.88,14.64l1.26,2.85h11.55l-1.05-1.99-.13-.24ZM191.58,28.1c-2.53,3.06-7.79,2.82-11.42,2.82v-15.5s9.24-1.4,11.79,3.04c1.32,2.5,1.48,7.15-.38,9.67v-.03ZM328.94,10.1c-2.79-.03-21.01.27-21.09,21.63,0,21.22,18,22.03,21.09,22.03s21.12-.81,21.06-22.03c-.03-21.36-18.21-21.65-21.06-21.63ZM329.02,47.84h-.16c-1.18,0-9.86.38-9.81-16.93.05-16.07,8.52-15.61,9.91-15.61s9.83-.46,9.91,15.58c.05,17.33-8.65,16.95-9.86,16.95ZM268.89,32.48c-4.92-4.22-10.88-5.56-15.07-8.44-2.96-2.26-2.5-5.21-.99-6.8,3.52-3.92,10.91-2.07,12.63-1.67,2.15.64,3.33,1.34,5.4,2.26v-5.32c-8.78-2.55-22.89-5-28.45,3.84-2.04,3.63-2.55,10.21,3.3,14.05,5.94,4.7,15.66,6.96,16.87,10.75.75,2.07-.16,4.03-1.56,5.45-5.27,4.86-13.7,1.83-19.15-.59v5.24c5.91,2.63,13.35,3.3,19.99,1.88,4.57-.99,9.62-5,10.45-9.91.81-4.84-.19-8.03-3.41-10.75ZM301.86,32.48c-4.89-4.22-10.85-5.56-15.04-8.44-2.96-2.26-2.53-5.21-1.02-6.8,3.49-3.92,10.91-2.07,12.63-1.67,2.18.64,3.36,1.34,5.43,2.26v-5.32c-8.81-2.55-22.89-5-28.48,3.84-2.04,3.63-2.58,10.21,3.33,14.05,5.94,4.7,15.66,6.96,16.84,10.75.78,2.07-.11,4.03-1.56,5.45-5.24,4.86-13.7,1.83-19.13-.59l-.03,5.24c5.91,2.63,13.38,3.3,19.99,1.88,4.57-.99,9.64-5,10.48-9.91.81-4.84-.21-8.03-3.44-10.75ZM209.68,53.06h29.04v-4.78c-5.59.16-12.57,1.02-18.3.46v-15.18c4.65-.27,10.29-.16,14.61.24v-5.02c-4.43.54-9.94.51-14.64.21v-13.97c5.75-.62,12.73.32,18.32.4v-4.7h-29.04v42.34Z" fill="#4e3227"/></g></svg>