<?xml version="1.0" encoding="UTF-8"?><svg id="Layer_2" xmlns="http://www.w3.org/2000/svg" viewBox="0 0 2279.41 586.77"><g id="Layer_1-2"><path d="M291.78,237.71l104.15,132.78c52.48,65.99,169.35,96.18,253.62,63.58l.8.8c-96.2,50.89-223.42,25.43-303.71-39.74-56.46-44.54-89.05-106.55-136.75-157.44v104.95c0,8.74,5.58,15.12,5.58,15.12h-41.35s5.56-6.38,5.56-15.12V94.6c39.75,47.7,73.15,93.02,112.1,143.11h0ZM2216.61,329.94c0-17.51,14.32-31.01,31.79-31.01s31.01,13.5,31.01,31.01-14.32,31.01-31.01,31.01-31.79-13.5-31.79-31.01ZM2248.4,357.79c15.1,0,27.83-11.93,27.83-27.83s-12.74-27.83-27.83-27.83c-15.91,0-28.62,12.74-28.62,27.83,0,15.9,12.72,27.83,28.62,27.83Z" fill="#faf9f8" fill-rule="evenodd"/><path d="M2234.9,311.65h16.69c7.15,0,11.12,3.19,11.12,9.55s-4.76,7.95-5.58,8.74c2.39,0,5.58,1.6,5.58,7.15,0,3.98,0,7.95,1.6,9.55h-6.36c-.8-1.6-.8-3.16-.8-5.58,0-6.36-1.6-8.74-7.15-8.74h-9.55v14.32h-5.55v-34.98h0ZM2240.45,327.55h10.34c3.98,0,6.36-2.39,6.36-5.58,0-4.76-3.16-5.55-6.36-5.55h-10.34v11.13h0ZM2090.18,361.73c-16.69,0-126.4-3.16-126.4-128.79.79-124.83,108.92-126.4,126.4-126.4s125.63,1.57,125.63,126.4-109.71,128.79-126.4,128.79h.78ZM2090.18,327.55c7.17,0,58.04,2.39,57.25-99.37,0-93.82-49.3-90.63-57.25-90.63s-58.04-3.19-58.04,90.63c-.79,101.76,50.08,99.37,57.25,99.37h.79ZM1932.77,120.85v31.01c-13.53-5.58-20.67-9.55-34.2-12.74-10.34-2.39-56.44-13.5-77.92,9.55-9.52,9.55-12.71,26.24,6.38,39.74,25.43,16.69,62.8,24.64,93.02,49.3,19.86,15.91,26.21,34.2,21.45,62.83-5.58,28.62-36.57,51.67-65.2,58.04-40.53,7.95-87.44,3.98-124.02-11.12v-31.01c34.2,14.29,86.66,32.58,119.26,3.96,8.74-7.95,14.32-19.86,9.55-31.79-7.17-22.27-67.59-35.77-104.95-62.83-36.57-23.05-33.38-61.2-19.88-82.68,34.21-51.7,121.66-37.38,176.52-22.26h0ZM1721.28,120.85v31.01c-12.71-5.58-19.86-9.55-33.38-12.74-11.12-2.39-56.44-13.5-78.7,9.55-9.55,9.55-11.93,26.24,6.36,39.74,26.24,16.69,62.8,24.64,93.82,49.3,19.86,15.91,26.21,34.2,20.67,62.83-4.79,28.62-36.57,51.67-64.42,58.04-41.35,7.95-87.44,3.98-124.02-11.12v-31.01c33.38,14.29,85.87,32.58,118.48,3.96,8.74-7.95,14.32-19.86,9.52-31.79-7.15-22.27-67.59-35.77-104.13-62.83-36.57-23.05-33.41-61.2-20.67-82.68,34.16-51.7,121.63-37.38,176.48-22.26h0ZM857.07,120.85v31.01c-13.51-5.58-20.67-9.55-34.19-12.74-10.34-2.39-56.44-13.5-77.91,9.55-9.55,9.55-12.72,26.24,6.37,39.74,25.43,16.69,62.8,24.64,93.02,49.3,19.87,15.91,26.24,34.2,21.46,62.83-5.56,28.62-36.57,51.67-65.2,58.04-40.54,7.95-87.46,3.98-124.03-11.12l.8-31.01c33.4,14.29,85.87,32.58,118.47,3.96,8.74-7.95,14.32-19.86,9.53-31.79-7.16-22.27-67.57-35.77-104.94-62.83-36.57-23.05-32.61-61.2-19.88-82.68,34.18-51.7,121.63-37.38,176.49-22.26h0ZM317.23,230.56c38.16,50.08,72.35,96.18,112.1,143.1V125.61c0-8.74,5.56-15.1,5.56-15.1h-42.14s6.37,6.36,6.37,15.1v104.95c-35.78-37.37-62.81-81.89-97.79-120.05-3.98-5.58-34.19-37.39-42.93-45.32C195.58,3.97,94.61-20.67,0,19.88l.79,1.57c32.61-11.12,78.71-10.34,124.83,7.95,29.42,11.14,54.06,26.24,78.71,56.47,6.36,7.92,112.89,144.69,112.89,144.69h0ZM545.4,333.13c33.38,3.16,73.94-2.41,106.53-3.19v27.83h-176.49s5.56-5.58,5.56-15.12V125.61c0-9.55-5.56-15.1-5.56-15.1h176.49v27.82c-32.59-.79-73.15-6.36-106.53-2.39v81.09c27.03,2.39,59.62,2.39,85.07-.79v29.42c-28.28-2.52-56.71-3.06-85.07-1.6v89.06h0ZM1411.21,333.13c33.38,3.16,73.94-2.41,106.55-3.19v27.83h-176.51s5.58-5.58,5.58-15.12V125.61c0-9.55-5.58-15.1-5.58-15.1h176.51v27.82c-32.61-.79-73.16-6.36-106.55-2.39v81.09c27.03,2.39,59.63,2.39,85.07-.79v29.42c-28.28-2.52-56.71-3.06-85.07-1.6v89.06h0ZM1171.1,256v86.66c0,9.55,5.58,15.12,5.58,15.12h-74.73s5.56-5.58,5.56-15.12V125.63c0-9.55-5.56-15.1-5.56-15.1h128.01c34.98,1.57,72.35,20.67,73.14,62.8,0,34.2-15.1,54.06-37.37,65.2-4.76,1.57-3.98.79-5.58,2.39,15.91,37.37,31.04,65.17,50.1,101.76,3.98,9.55,11.93,15.12,11.93,15.12h-77.92s4.76-5.58,0-15.12c0,0-27.83-65.17-40.56-86.66h-32.61s0-.01,0-.01ZM1171.1,141.53v83.47c21.48,0,46.91,3.19,62.01-14.32,11.93-16.69,10.34-38.14,1.6-53.27-14.31-24.66-63.6-15.89-63.6-15.89ZM960.42,342.66c0,9.55,5.56,15.12,5.56,15.12h-75.54s5.56-5.58,5.56-15.12V125.63c0-9.55-5.56-15.1-5.56-15.1h124.83c31.01.79,54.85,15.1,65.19,45.29,7.95,27.05,6.36,61.23-11.92,82.71-25.43,34.18-108.92,28.62-108.92,28.62l.79,75.51ZM959.63,142.31v92.23c21.46,1.57,46.9,3.98,62.01-12.71,12.71-16.72,10.34-49.3,1.6-64.42-14.32-24.64-63.6-15.1-63.6-15.1h0Z" fill="#faf9f8" fill-rule="evenodd"/><rect x="693.29" y="503.25" width="16.69" height="81.9" fill="#faf9f8"/><polygon points="755.29 503.25 772 503.25 772 572.43 810.16 572.43 810.16 585.16 755.29 585.16 755.29 503.25" fill="#faf9f8" fill-rule="evenodd"/><path d="M905.56,561.29c7.16,7.95,15.91,13.53,28.62,13.53,8.74,0,16.71-5.58,16.71-12.71,0-18.29-47.7-5.58-47.7-34.98,0-15.12,15.11-25.46,33.4-25.46,10.34,0,17.5,3.19,25.43,8.77v16.69c-5.56-6.36-15.11-12.71-25.43-12.71-7.95,0-16.69,3.96-16.69,11.12,0,18.29,46.11,3.98,46.11,35.77,0,13.53-11.92,25.46-31.01,25.46-11.92,0-19.88-3.98-29.43-9.55v-15.93Z" fill="#faf9f8" fill-rule="evenodd"/><rect x="1006.53" y="503.25" width="16.69" height="81.9" fill="#faf9f8"/><path d="M1066.17,561.29c7.15,7.95,15.9,13.53,27.82,13.53,9.55,0,16.71-5.58,16.71-12.71,0-18.29-46.91-5.58-46.91-34.98,0-15.12,15.11-25.46,33.38-25.46,10.34,0,17.5,3.19,25.45,8.77v16.69c-5.56-6.36-15.11-12.71-25.45-12.71-7.95,0-16.69,3.96-16.69,11.12,0,18.29,46.12,3.98,46.12,35.77,0,13.53-11.93,25.46-31.8,25.46-11.13,0-19.08-3.98-28.62-9.55v-15.93h0Z" fill="#faf9f8" fill-rule="evenodd"/><polygon points="1186.23 515.98 1158.38 515.98 1158.38 503.25 1231.54 503.25 1231.54 515.98 1202.92 515.98 1202.92 585.16 1186.23 585.16 1186.23 515.98 1186.23 515.98" fill="#faf9f8" fill-rule="evenodd"/><polygon points="1267.31 503.25 1329.32 503.25 1329.32 515.98 1284.01 515.98 1284.01 539.02 1329.32 539.02 1329.32 550.18 1284.01 550.18 1284.01 573.23 1329.32 573.23 1329.32 585.16 1267.31 585.16 1267.31 503.25 1267.31 503.25" fill="#faf9f8" fill-rule="evenodd"/><polygon points="1374.64 503.25 1401.67 503.25 1423.94 564.48 1446.21 503.25 1473.24 503.25 1473.24 585.16 1456.54 585.16 1456.54 514.41 1431.89 585.16 1415.99 585.16 1391.33 514.41 1390.55 514.41 1390.55 585.16 1374.64 585.16 1374.64 503.25 1374.64 503.25" fill="#faf9f8" fill-rule="evenodd"/><path d="M1566.25,503.27h-24.64l-31.8,81.89h15.89l8.77-22.27h38.14l8.74,22.27h16.69l-31.79-81.89ZM1538.41,550.96l15.12-40.53,15.1,40.53h-30.22Z" fill="#faf9f8" fill-rule="evenodd"/></g></svg>