<?xml version="1.0" encoding="UTF-8"?><svg id="Layer_2" xmlns="http://www.w3.org/2000/svg" viewBox="0 0 348 85.22"><g id="Layer_1-2"><path d="M348,42.34c0-19.58-17.08-19.82-19.7-19.82s-19.7.25-19.82,19.82c0,19.56,16.96,20.19,19.76,20.2,2.8,0,19.76-.64,19.76-20.2ZM328.36,55.65h-.09c-.81,0-6.52.34-6.43-13.99,0-13.21,5.63-12.76,6.52-12.76s6.43-.45,6.43,12.76c.09,14.33-5.62,13.99-6.43,13.99Z" fill="#4e3227"/><path d="M328.3,62.54s-.04,0-.06,0c-.02,0-.04,0-.06,0h.12Z" fill="#4e3227"/><path d="M2.2,7.89c3.27-2.17,14.65-8.17,31.38.03,0,0,6.44,3.49,12.62,11.81l32.89,48.46h2.82V24.98c0-1.42.33-2.83.97-4.1l.96-1.92c.06-.11.09-.24.09-.37v-1.41c0-.45-.37-.82-.82-.82h-9.44c-.45,0-.82.37-.82.82v1.41c0,.13.03.25.08.36l.96,1.94c.62,1.26.95,2.65.95,4.06v16.21h-.69l-11.82-18.26S53.76,7.98,38.64,2.46c0,0-19.02-7.17-37.88,2.99-.82.44-1.01,1.54-.37,2.22h0c.47.51,1.24.6,1.82.22Z" fill="#4e3227"/><path d="M131.16,69.72c-3.27,2.17-20.64,20.01-43.27,7.46,0,0-6.44-3.49-12.62-11.81L42.39,16.91h-2.82v43.2c0,1.42-.33,2.83-.97,4.1l-.96,1.92c-.06.11-.09.24-.09.37v1.41c0,.45.37.82.82.82h9.44c.45,0,.82-.37.82-.82v-1.41c0-.13-.03-.25-.08-.36l-.96-1.94c-.62-1.26-.95-2.65-.95-4.06v-16.21h.69l11.82,18.26s8.56,14.93,23.69,20.46c0,0,28.75,10.37,49.77-10.49.66-.66,1.01-1.54.37-2.22h0c-.47-.51-1.24-.6-1.82-.22Z" fill="#4e3227"/><path d="M113.87,53.44v9.23h-7.94l-20.9-.03c-.84,0-1.52-.68-1.52-1.52v-1.67c0-.19.04-.38.11-.56l.78-1.95c.36-.91.55-1.88.55-2.86l-.04-23.16c0-.97-.19-1.93-.55-2.83l-.79-1.96c-.07-.18-.11-.37-.11-.56v-1.67c0-.84.68-1.52,1.52-1.52h28.19v9.22c0,.42-.34.76-.76.76h-1.29c-.11,0-.23-.03-.34-.08l-.51-.56c-1.14-1.26-2.7-2.13-4.4-2.26-.22-.01-.44-.02-.66-.02v-.02h-7.54v9.6h4.62c1.31,0,2.59-.3,3.76-.88l1.79-.89c.11-.05.22-.08.34-.08h1.3c.42,0,.76.34.76.76v8.74c0,.42-.34.76-.76.76h-1.3c-.12,0-.23-.03-.34-.08l-1.77-.88c-1.18-.59-2.47-.9-3.8-.9h-4.59s0,10.04,0,10.04h8.24c.22,0,.44,0,.66-.02,1.7-.13,3.25-1,4.4-2.26l.51-.56c.11-.06.22-.08.34-.08h1.3c.42,0,.76.34.76.76Z" fill="#4e3227"/><path d="M245.77,53.23v9.23h-7.94l-20.9-.03c-.84,0-1.52-.68-1.52-1.52v-1.67c0-.19.04-.38.11-.56l.78-1.95c.36-.91.55-1.88.55-2.86l-.04-23.16c0-.97-.19-1.93-.55-2.83l-.79-1.96c-.07-.18-.11-.37-.11-.56v-1.67c0-.84.68-1.52,1.52-1.52h28.19v9.22c0,.42-.34.76-.76.76h-1.29c-.11,0-.23-.03-.34-.08l-.51-.56c-1.14-1.26-2.7-2.13-4.4-2.26-.22-.01-.44-.02-.66-.02v-.02h-7.54v9.6h4.62c1.31,0,2.59-.3,3.76-.88l1.79-.89c.11-.05.22-.08.34-.08h1.3c.42,0,.76.34.76.76v8.74c0,.42-.34.76-.76.76h-1.3c-.12,0-.23-.03-.34-.08l-1.77-.88c-1.18-.59-2.47-.9-3.8-.9h-4.59s0,10.04,0,10.04h8.24c.22,0,.44,0,.66-.02,1.7-.13,3.25-1,4.4-2.26l.51-.56c.11-.06.22-.08.34-.08h1.3c.42,0,.76.34.76.76Z" fill="#4e3227"/><path d="M169.61,22.73l-22.37-.14c-.61,0-1.1.49-1.1,1.09v.94c0,.2.06.4.16.57l2.15,3.48v24.73c0,.85-.18,1.68-.56,2.44,0,0,0,0,0,.01l-1.4,2.81c-.09.17-.13.35-.13.54v2.06c0,.66.54,1.2,1.21,1.2h13.84c.66,0,1.2-.54,1.2-1.2v-2.06c0-.19-.05-.37-.12-.54l-1.41-2.83s0,0,0,0c-.29-.59-.42-1.24-.42-1.89v-7.23h8.89c2.36,0,4.68-.73,6.55-2.17.1-.07.19-.15.28-.22,2.21-1.8,3.46-4.52,3.46-7.37v-4.49c0-3.29-1.68-6.38-4.48-8.11-.04-.02-.08-.05-.11-.07-1.69-1.02-3.64-1.54-5.61-1.56ZM166.61,40.13c-.61,1.12-1.78,1.81-3.06,1.81h-3.1v-13.27h3.22c1.27,0,2.45.7,3.06,1.81.61,1.11,1.2,2.7,1.2,4.65,0,2.06-.67,3.79-1.33,4.99Z" fill="#4e3227" fill-rule="evenodd"/><path d="M217.24,61.31c-1.55-2.44-5.18-9.38-7.97-16.86l.02-.07c2.27-1.8,3.55-4.55,3.55-7.44v-4.49c0-3.29-1.68-6.38-4.48-8.11-.04-.02-.08-.05-.11-.07-1.69-1.02-3.64-1.54-5.61-1.56l-22.37-.13c-.61,0-1.1.48-1.1,1.09v.94c0,.2.06.4.16.57l2.14,3.47s0,.02,0,.03v24.76c0,.83-.19,1.66-.57,2.4h0s-1.4,2.81-1.4,2.81c-.09.17-.13.35-.13.54v2.06c0,.66.54,1.2,1.21,1.2h13.78c.69,0,1.26-.56,1.26-1.26v-2c0-.19-.05-.37-.12-.54l-1.41-2.83s0,0,0,0c-.29-.59-.42-1.23-.42-1.89v-7.17s.03-.06.06-.06h3s.04.01.05.03l5.95,14.2c.41.93,1.33,1.53,2.35,1.53h11.55c.59,0,.95-.65.64-1.15ZM194.4,28.78s.03-.06.06-.06h2.69c1.09,0,2.09.6,2.61,1.55.52.95,1.03,2.3,1.03,3.97,0,1.76-.57,3.24-1.13,4.26-.52.96-1.52,1.55-2.61,1.55h-2.59s-.06-.03-.06-.06v-11.22Z" fill="#4e3227" fill-rule="evenodd"/><path d="M143.04,33.52h-1.53c-.23,0-.44-.15-.52-.37-.38-1.14-1.99-4.52-7.75-4.56-.15,0-.29,0-.44-.01-.82-.04-4.31-.08-4.76,2.48,0,0-1.16,2.61,2.32,3.84,1.81.64,4.93,1.57,7.84,3.06,4.92,2.5,7.92,7.74,7.33,13.23-.18,1.68-.7,3.41-1.81,4.9-.09.12-.17.24-.25.36-.21.32-.77,1.09-1.88,2.08-2.98,2.63-6.86,4-10.84,3.89-4.72-.12-11.99-.56-14.36-2.11-.15-.1-.24-.27-.24-.45v-9.19c0-.3.24-.54.54-.54h1.03c.19,0,.36.1.46.26.15.23.4.61.76,1.05,1.74,2.08,4.23,3.39,6.92,3.71,2.35.28,5.91.31,6.97-1.87.28-.57.31-1.23.16-1.85-.26-1.09-1.08-2.88-3.75-3.45-.52-.11-1.03-.24-1.53-.4-1.44-.47-4.15-1.47-6.65-3.13-3.03-2.01-5.06-5.23-5.47-8.84s.34-8.69,6.21-11.94c0,0,1.77-1.13,11.09-1.02,0,0,8.41.07,10.36.94.2.09.32.28.32.5v8.89c0,.3-.24.54-.54.54Z" fill="#4e3227"/><path d="M305.32,33.52h-1.53c-.23,0-.44-.15-.52-.37-.38-1.14-1.99-4.52-7.75-4.56-.15,0-.29,0-.44-.01-.82-.04-4.31-.08-4.76,2.48,0,0-1.16,2.61,2.32,3.84,1.81.64,4.93,1.57,7.84,3.06,4.92,2.5,7.92,7.74,7.33,13.23-.18,1.68-.7,3.41-1.81,4.9-.09.12-.17.24-.25.36-.21.32-.77,1.09-1.88,2.08-2.98,2.63-6.86,4-10.84,3.89-4.72-.12-11.99-.56-14.36-2.11-.15-.1-.24-.27-.24-.45v-9.19c0-.3.24-.54.54-.54h1.03c.19,0,.36.1.46.26.15.23.4.61.76,1.05,1.74,2.08,4.23,3.39,6.92,3.71,2.35.28,5.91.31,6.97-1.87.28-.57.31-1.23.16-1.85-.26-1.09-1.08-2.88-3.75-3.45-.52-.11-1.03-.24-1.53-.4-1.44-.47-4.15-1.47-6.65-3.13-3.03-2.01-5.06-5.23-5.47-8.84s.34-8.69,6.21-11.94c0,0,1.77-1.13,11.09-1.02,0,0,8.41.07,10.36.94.2.09.32.28.32.5v8.89c0,.3-.24.54-.54.54Z" fill="#4e3227"/><path d="M275.22,33.52h-1.53c-.23,0-.44-.15-.52-.37-.38-1.14-1.99-4.52-7.75-4.56-.15,0-.29,0-.44-.01-.82-.04-4.31-.08-4.76,2.48,0,0-1.16,2.61,2.32,3.84,1.81.64,4.93,1.57,7.84,3.06,4.92,2.5,7.92,7.74,7.33,13.23-.18,1.68-.7,3.41-1.81,4.9-.09.12-.17.24-.25.36-.21.32-.77,1.09-1.88,2.08-2.98,2.63-6.86,4-10.84,3.89-4.72-.12-11.99-.56-14.36-2.11-.15-.1-.24-.27-.24-.45v-9.19c0-.3.24-.54.54-.54h1.03c.19,0,.36.1.46.26.15.23.4.61.76,1.05,1.74,2.08,4.23,3.39,6.92,3.71,2.35.28,5.91.31,6.97-1.87.28-.57.31-1.23.16-1.85-.26-1.09-1.08-2.88-3.75-3.45-.52-.11-1.03-.24-1.53-.4-1.44-.47-4.15-1.47-6.65-3.13-3.03-2.01-5.06-5.23-5.47-8.84s.34-8.69,6.21-11.94c0,0,1.77-1.13,11.09-1.02,0,0,8.41.07,10.36.94.2.09.32.28.32.5v8.89c0,.3-.24.54-.54.54Z" fill="#4e3227"/></g></svg>